<mxfile host="Electron" modified="2024-05-16T13:24:42.483Z" agent="Mozilla/5.0 (Windows NT 10.0; Win64; x64) AppleWebKit/537.36 (KHTML, like Gecko) draw.io/24.2.5 Chrome/120.0.6099.109 Electron/28.1.0 Safari/537.36" etag="8PLPMN47I9FnkqWoGZ_C" version="24.2.5" type="device">
  <diagram name="第 1 页" id="dVdpCF9wNjlWeNjONU8Y">
    <mxGraphModel dx="2049" dy="2794" grid="1" gridSize="10" guides="1" tooltips="1" connect="1" arrows="1" fold="1" page="1" pageScale="1" pageWidth="900" pageHeight="1600" background="none" math="0" shadow="0">
      <root>
        <mxCell id="0" />
        <mxCell id="1" parent="0" />
        <mxCell id="Ce94UzNjPFxygGqjQuoT-1" value="" style="rounded=0;whiteSpace=wrap;html=1;dashed=1;dashPattern=8 8;" parent="1" vertex="1">
          <mxGeometry x="370" y="50" width="840" height="390" as="geometry" />
        </mxCell>
        <mxCell id="p5TeQGGZOSFcAktKHEvx-1" value="&lt;p&gt;&lt;font size=&quot;1&quot; face=&quot;宋体&quot;&gt;&lt;b style=&quot;font-size: 24px;&quot;&gt;研究与实践&lt;/b&gt;&lt;/font&gt;&lt;/p&gt;" style="text;html=1;align=center;verticalAlign=middle;whiteSpace=wrap;rounded=0;fontFamily=Times New Roman;fontSize=14;" parent="1" vertex="1">
          <mxGeometry x="702.5" y="-10" width="125" height="30" as="geometry" />
        </mxCell>
        <mxCell id="p5TeQGGZOSFcAktKHEvx-2" value="&lt;p style=&quot;font-size: 18px;&quot;&gt;&lt;b style=&quot;&quot;&gt;&lt;font style=&quot;font-size: 18px;&quot; face=&quot;Times New Roman&quot;&gt;Falcon&lt;/font&gt;&lt;font style=&quot;font-size: 18px;&quot; face=&quot;宋体&quot;&gt;模型迁移&lt;/font&gt;&lt;/b&gt;&lt;/p&gt;" style="text;html=1;align=center;verticalAlign=middle;whiteSpace=wrap;rounded=0;fontFamily=Times New Roman;fontSize=14;" parent="1" vertex="1">
          <mxGeometry x="475" y="60" width="130" height="30" as="geometry" />
        </mxCell>
        <mxCell id="p5TeQGGZOSFcAktKHEvx-6" value="" style="rounded=1;whiteSpace=wrap;html=1;align=center;verticalAlign=middle;fontFamily=Times New Roman;fontSize=14;fontColor=default;fillColor=none;gradientColor=none;" parent="1" vertex="1">
          <mxGeometry x="380" y="90" width="340" height="330" as="geometry" />
        </mxCell>
        <mxCell id="p5TeQGGZOSFcAktKHEvx-10" value="&lt;font face=&quot;Times New Roman&quot;&gt;Pytorch&lt;/font&gt;&lt;font face=&quot;宋体&quot;&gt;模型复现&lt;/font&gt;" style="html=1;shadow=0;dashed=0;align=center;verticalAlign=middle;shape=mxgraph.arrows2.arrow;dy=0;dx=30;notch=30;rounded=0;fontFamily=Times New Roman;fontSize=14;fontColor=default;fillColor=none;gradientColor=none;" parent="1" vertex="1">
          <mxGeometry x="404.96" y="150" width="160" height="30" as="geometry" />
        </mxCell>
        <mxCell id="p5TeQGGZOSFcAktKHEvx-11" value="&lt;font face=&quot;宋体&quot;&gt;分析模型结构&lt;/font&gt;" style="html=1;shadow=0;dashed=0;align=center;verticalAlign=middle;shape=mxgraph.arrows2.arrow;dy=0;dx=30;notch=30;rounded=0;fontFamily=Times New Roman;fontSize=14;fontColor=default;fillColor=none;gradientColor=none;" parent="1" vertex="1">
          <mxGeometry x="534.96" y="150" width="160" height="30" as="geometry" />
        </mxCell>
        <mxCell id="p5TeQGGZOSFcAktKHEvx-12" value="&lt;font face=&quot;Times New Roman&quot;&gt;MindSpore&lt;/font&gt;&lt;font face=&quot;宋体&quot;&gt;适配&lt;/font&gt;" style="html=1;shadow=0;dashed=0;align=center;verticalAlign=middle;shape=mxgraph.arrows2.arrow;dy=0;dx=30;notch=30;rounded=0;fontFamily=Times New Roman;fontSize=14;fontColor=default;fillColor=none;gradientColor=none;" parent="1" vertex="1">
          <mxGeometry x="534.96" y="200" width="160" height="30" as="geometry" />
        </mxCell>
        <mxCell id="p5TeQGGZOSFcAktKHEvx-13" value="&lt;font face=&quot;宋体&quot;&gt;单模块精度对齐&lt;/font&gt;" style="html=1;shadow=0;dashed=0;align=center;verticalAlign=middle;shape=mxgraph.arrows2.arrow;dy=0;dx=30;notch=30;rounded=0;fontFamily=Times New Roman;fontSize=14;fontColor=default;fillColor=none;gradientColor=none;" parent="1" vertex="1">
          <mxGeometry x="404.96" y="250" width="160" height="30" as="geometry" />
        </mxCell>
        <mxCell id="p5TeQGGZOSFcAktKHEvx-15" value="&lt;font face=&quot;宋体&quot;&gt;权重迁移&lt;/font&gt;" style="html=1;shadow=0;dashed=0;align=center;verticalAlign=middle;shape=mxgraph.arrows2.arrow;dy=0;dx=30;notch=30;rounded=0;fontFamily=Times New Roman;fontSize=14;fontColor=default;fillColor=none;gradientColor=none;" parent="1" vertex="1">
          <mxGeometry x="534.96" y="250" width="160" height="30" as="geometry" />
        </mxCell>
        <mxCell id="p5TeQGGZOSFcAktKHEvx-16" value="&lt;span style=&quot;font-family: 宋体;&quot;&gt;整网正向执行&lt;/span&gt;" style="html=1;shadow=0;dashed=0;align=center;verticalAlign=middle;shape=mxgraph.arrows2.arrow;dy=0;dx=30;notch=30;rounded=0;fontFamily=Times New Roman;fontSize=14;fontColor=default;fillColor=none;gradientColor=none;" parent="1" vertex="1">
          <mxGeometry x="402.46" y="300" width="160" height="30" as="geometry" />
        </mxCell>
        <mxCell id="p5TeQGGZOSFcAktKHEvx-17" value="&lt;p style=&quot;font-size: 16px;&quot;&gt;&lt;b style=&quot;font-size: 16px;&quot;&gt;&lt;font style=&quot;font-size: 16px;&quot; face=&quot;宋体&quot;&gt;模型迁移&lt;/font&gt;&lt;font style=&quot;font-size: 16px;&quot; face=&quot;Times New Roman&quot;&gt;Pipeline&lt;/font&gt;&lt;/b&gt;&lt;/p&gt;" style="text;html=1;align=center;verticalAlign=middle;whiteSpace=wrap;rounded=0;fontFamily=Times New Roman;fontSize=16;" parent="1" vertex="1">
          <mxGeometry x="483.75" y="100" width="132.5" height="30" as="geometry" />
        </mxCell>
        <mxCell id="p5TeQGGZOSFcAktKHEvx-18" value="&lt;span style=&quot;font-family: 宋体;&quot;&gt;整网精度验证&lt;/span&gt;" style="html=1;shadow=0;dashed=0;align=center;verticalAlign=middle;shape=mxgraph.arrows2.arrow;dy=0;dx=30;notch=30;rounded=0;fontFamily=Times New Roman;fontSize=14;fontColor=default;fillColor=none;gradientColor=none;" parent="1" vertex="1">
          <mxGeometry x="532.46" y="300" width="160" height="30" as="geometry" />
        </mxCell>
        <mxCell id="p5TeQGGZOSFcAktKHEvx-19" value="&lt;font face=&quot;宋体&quot;&gt;单元测试迁移&lt;/font&gt;" style="html=1;shadow=0;dashed=0;align=center;verticalAlign=middle;shape=mxgraph.arrows2.arrow;dy=0;dx=30;notch=30;rounded=0;fontFamily=Times New Roman;fontSize=14;fontColor=default;fillColor=none;gradientColor=none;" parent="1" vertex="1">
          <mxGeometry x="402.46" y="350" width="160" height="30" as="geometry" />
        </mxCell>
        <mxCell id="p5TeQGGZOSFcAktKHEvx-20" value="&lt;font face=&quot;宋体&quot;&gt;功能测试&lt;/font&gt;" style="html=1;shadow=0;dashed=0;align=center;verticalAlign=middle;shape=mxgraph.arrows2.arrow;dy=0;dx=30;notch=30;rounded=0;fontFamily=Times New Roman;fontSize=14;fontColor=default;fillColor=none;gradientColor=none;" parent="1" vertex="1">
          <mxGeometry x="532.46" y="350" width="160" height="30" as="geometry" />
        </mxCell>
        <mxCell id="p5TeQGGZOSFcAktKHEvx-30" value="&lt;p style=&quot;font-size: 18px;&quot;&gt;&lt;b style=&quot;&quot;&gt;&lt;font style=&quot;font-size: 18px;&quot; face=&quot;Times New Roman&quot;&gt;Falcon-rw-1b&lt;/font&gt;&lt;font style=&quot;font-size: 18px;&quot; face=&quot;宋体&quot;&gt;本地化训练&lt;/font&gt;&lt;/b&gt;&lt;/p&gt;" style="text;html=1;align=center;verticalAlign=middle;whiteSpace=wrap;rounded=0;fontFamily=Times New Roman;fontSize=14;" parent="1" vertex="1">
          <mxGeometry x="880" y="50" width="200" height="30" as="geometry" />
        </mxCell>
        <mxCell id="p5TeQGGZOSFcAktKHEvx-32" value="&lt;div style=&quot;font-size: 14px;&quot;&gt;&lt;font style=&quot;font-size: 14px;&quot; face=&quot;宋体&quot;&gt;自然语言处理&lt;/font&gt;&lt;/div&gt;&lt;div style=&quot;font-size: 14px;&quot;&gt;&lt;font style=&quot;font-size: 14px;&quot; face=&quot;宋体&quot;&gt;深度学习&lt;/font&gt;&lt;/div&gt;&lt;div style=&quot;font-size: 14px;&quot;&gt;&lt;font style=&quot;font-size: 14px;&quot; face=&quot;宋体&quot;&gt;软件工程&lt;/font&gt;&lt;/div&gt;&lt;div style=&quot;font-size: 14px;&quot;&gt;&lt;font style=&quot;font-size: 14px;&quot;&gt;&lt;font style=&quot;font-size: 14px;&quot; face=&quot;Times New Roman&quot;&gt;python&lt;/font&gt;&lt;span style=&quot;font-family: 宋体; background-color: initial;&quot;&gt;程序设计&lt;/span&gt;&lt;/font&gt;&lt;/div&gt;" style="rounded=0;whiteSpace=wrap;html=1;dashed=1;dashPattern=8 8;" parent="1" vertex="1">
          <mxGeometry x="230" y="50" width="120" height="390" as="geometry" />
        </mxCell>
        <mxCell id="p5TeQGGZOSFcAktKHEvx-33" value="&lt;p&gt;&lt;font size=&quot;1&quot; face=&quot;宋体&quot;&gt;&lt;b style=&quot;font-size: 24px;&quot;&gt;理论基础&lt;/b&gt;&lt;/font&gt;&lt;/p&gt;" style="text;html=1;align=center;verticalAlign=middle;whiteSpace=wrap;rounded=0;fontFamily=Times New Roman;fontSize=14;" parent="1" vertex="1">
          <mxGeometry x="250" y="-10" width="100" height="30" as="geometry" />
        </mxCell>
        <mxCell id="p5TeQGGZOSFcAktKHEvx-34" value="&lt;p&gt;&lt;font size=&quot;1&quot; face=&quot;宋体&quot;&gt;&lt;b style=&quot;font-size: 24px;&quot;&gt;工具链&lt;/b&gt;&lt;/font&gt;&lt;/p&gt;" style="text;html=1;align=center;verticalAlign=middle;whiteSpace=wrap;rounded=0;fontFamily=Times New Roman;fontSize=14;" parent="1" vertex="1">
          <mxGeometry x="1210" y="-10" width="80" height="30" as="geometry" />
        </mxCell>
        <mxCell id="p5TeQGGZOSFcAktKHEvx-35" value="&lt;font style=&quot;font-size: 14px;&quot; face=&quot;Times New Roman&quot;&gt;Pytorch&lt;/font&gt;&lt;div style=&quot;font-size: 14px;&quot;&gt;&lt;font style=&quot;font-size: 14px;&quot; face=&quot;Times New Roman&quot;&gt;MindSpore&lt;/font&gt;&lt;/div&gt;&lt;div style=&quot;font-size: 14px;&quot;&gt;&lt;font style=&quot;font-size: 14px;&quot; face=&quot;Times New Roman&quot;&gt;Transformers&lt;/font&gt;&lt;/div&gt;&lt;div style=&quot;font-size: 14px;&quot;&gt;&lt;font style=&quot;font-size: 14px;&quot; face=&quot;Times New Roman&quot;&gt;MindNLP&lt;/font&gt;&lt;/div&gt;&lt;div style=&quot;font-size: 14px;&quot;&gt;&lt;font style=&quot;font-size: 14px;&quot; face=&quot;Times New Roman&quot;&gt;Peft&lt;/font&gt;&lt;/div&gt;&lt;div style=&quot;font-size: 14px;&quot;&gt;&lt;font style=&quot;font-size: 14px;&quot; face=&quot;Times New Roman&quot;&gt;Datasets&lt;/font&gt;&lt;/div&gt;&lt;div style=&quot;font-size: 14px;&quot;&gt;&lt;font style=&quot;font-size: 14px;&quot; face=&quot;Times New Roman&quot;&gt;Xshell&lt;/font&gt;&lt;/div&gt;&lt;div style=&quot;font-size: 14px;&quot;&gt;&lt;font style=&quot;font-size: 14px;&quot; face=&quot;Times New Roman&quot;&gt;Pytest&lt;/font&gt;&lt;/div&gt;" style="rounded=0;whiteSpace=wrap;html=1;dashed=1;dashPattern=8 8;" parent="1" vertex="1">
          <mxGeometry x="1230" y="50" width="80" height="390" as="geometry" />
        </mxCell>
        <mxCell id="p5TeQGGZOSFcAktKHEvx-189" style="edgeStyle=orthogonalEdgeStyle;rounded=0;orthogonalLoop=1;jettySize=auto;html=1;exitX=0.5;exitY=1;exitDx=0;exitDy=0;entryX=0.5;entryY=0;entryDx=0;entryDy=0;strokeColor=default;align=center;verticalAlign=middle;fontFamily=Times New Roman;fontSize=14;fontColor=default;labelBackgroundColor=default;endArrow=classicThin;endFill=1;" parent="1" source="p5TeQGGZOSFcAktKHEvx-37" target="p5TeQGGZOSFcAktKHEvx-63" edge="1">
          <mxGeometry relative="1" as="geometry" />
        </mxCell>
        <mxCell id="p5TeQGGZOSFcAktKHEvx-37" value="" style="rounded=1;whiteSpace=wrap;html=1;strokeColor=default;align=center;verticalAlign=middle;fontFamily=Helvetica;fontSize=12;fontColor=default;fillColor=default;" parent="1" vertex="1">
          <mxGeometry x="765" y="80" width="435" height="100" as="geometry" />
        </mxCell>
        <mxCell id="p5TeQGGZOSFcAktKHEvx-38" value="&lt;b style=&quot;font-size: 16px;&quot;&gt;&lt;font style=&quot;font-size: 16px;&quot; face=&quot;Times New Roman&quot;&gt;MRPC&lt;/font&gt;&lt;font style=&quot;font-size: 16px;&quot; face=&quot;宋体&quot;&gt;数据集预处理&lt;/font&gt;&lt;/b&gt;" style="text;html=1;align=center;verticalAlign=middle;whiteSpace=wrap;rounded=0;fontFamily=Helvetica;fontSize=12;fontColor=default;" parent="1" vertex="1">
          <mxGeometry x="780" y="80" width="165" height="30" as="geometry" />
        </mxCell>
        <mxCell id="p5TeQGGZOSFcAktKHEvx-53" style="edgeStyle=orthogonalEdgeStyle;rounded=0;orthogonalLoop=1;jettySize=auto;html=1;exitX=1;exitY=0.5;exitDx=0;exitDy=0;entryX=0;entryY=0.5;entryDx=0;entryDy=0;fontFamily=宋体;fontSize=12;fontColor=default;endArrow=classicThin;endFill=1;" parent="1" source="p5TeQGGZOSFcAktKHEvx-39" target="p5TeQGGZOSFcAktKHEvx-41" edge="1">
          <mxGeometry relative="1" as="geometry" />
        </mxCell>
        <mxCell id="p5TeQGGZOSFcAktKHEvx-39" value="&lt;font style=&quot;font-size: 14px;&quot;&gt;加载数据集&lt;/font&gt;" style="rounded=0;whiteSpace=wrap;html=1;strokeColor=default;align=center;verticalAlign=middle;fontFamily=宋体;fontSize=12;fontColor=default;fillColor=default;" parent="1" vertex="1">
          <mxGeometry x="776.25" y="110" width="80" height="20" as="geometry" />
        </mxCell>
        <mxCell id="p5TeQGGZOSFcAktKHEvx-188" style="edgeStyle=orthogonalEdgeStyle;rounded=0;orthogonalLoop=1;jettySize=auto;html=1;exitX=1;exitY=0.5;exitDx=0;exitDy=0;entryX=0;entryY=0.5;entryDx=0;entryDy=0;strokeColor=default;align=center;verticalAlign=middle;fontFamily=Times New Roman;fontSize=14;fontColor=default;labelBackgroundColor=default;endArrow=classicThin;endFill=1;" parent="1" source="p5TeQGGZOSFcAktKHEvx-41" target="p5TeQGGZOSFcAktKHEvx-44" edge="1">
          <mxGeometry relative="1" as="geometry" />
        </mxCell>
        <mxCell id="p5TeQGGZOSFcAktKHEvx-41" value="&lt;font style=&quot;font-size: 14px;&quot;&gt;提取数据项&lt;/font&gt;" style="rounded=0;whiteSpace=wrap;html=1;strokeColor=default;align=center;verticalAlign=middle;fontFamily=宋体;fontSize=12;fontColor=default;fillColor=default;" parent="1" vertex="1">
          <mxGeometry x="875" y="110" width="80" height="20" as="geometry" />
        </mxCell>
        <mxCell id="p5TeQGGZOSFcAktKHEvx-113" style="edgeStyle=orthogonalEdgeStyle;rounded=0;orthogonalLoop=1;jettySize=auto;html=1;exitX=1;exitY=0.5;exitDx=0;exitDy=0;fontFamily=Times New Roman;fontSize=14;fontColor=default;endArrow=classicThin;endFill=1;" parent="1" source="p5TeQGGZOSFcAktKHEvx-44" target="p5TeQGGZOSFcAktKHEvx-49" edge="1">
          <mxGeometry relative="1" as="geometry">
            <Array as="points">
              <mxPoint x="1190" y="120" />
              <mxPoint x="1190" y="160" />
            </Array>
          </mxGeometry>
        </mxCell>
        <mxCell id="p5TeQGGZOSFcAktKHEvx-44" value="" style="rounded=0;whiteSpace=wrap;html=1;dashed=1;strokeColor=default;align=center;verticalAlign=middle;fontFamily=宋体;fontSize=12;fontColor=default;fillColor=default;" parent="1" vertex="1">
          <mxGeometry x="975" y="90" width="205" height="60" as="geometry" />
        </mxCell>
        <mxCell id="p5TeQGGZOSFcAktKHEvx-45" value="&lt;font size=&quot;1&quot; style=&quot;&quot;&gt;&lt;b style=&quot;font-size: 14px;&quot;&gt;数据转换为训练特征&lt;/b&gt;&lt;/font&gt;" style="text;html=1;align=center;verticalAlign=middle;whiteSpace=wrap;rounded=0;fontFamily=宋体;fontSize=12;fontColor=default;" parent="1" vertex="1">
          <mxGeometry x="1015" y="90" width="142.5" height="30" as="geometry" />
        </mxCell>
        <mxCell id="p5TeQGGZOSFcAktKHEvx-46" value="&lt;font style=&quot;font-size: 14px;&quot;&gt;数据分词&lt;/font&gt;" style="rounded=0;whiteSpace=wrap;html=1;strokeColor=default;align=center;verticalAlign=middle;fontFamily=宋体;fontSize=12;fontColor=default;fillColor=default;" parent="1" vertex="1">
          <mxGeometry x="982.5" y="120" width="60" height="20" as="geometry" />
        </mxCell>
        <mxCell id="p5TeQGGZOSFcAktKHEvx-49" value="&lt;font style=&quot;font-size: 14px;&quot;&gt;构造数据加载器&lt;/font&gt;" style="rounded=0;whiteSpace=wrap;html=1;strokeColor=default;align=center;verticalAlign=middle;fontFamily=宋体;fontSize=12;fontColor=default;fillColor=default;" parent="1" vertex="1">
          <mxGeometry x="795" y="150" width="110" height="20" as="geometry" />
        </mxCell>
        <mxCell id="p5TeQGGZOSFcAktKHEvx-50" value="数据截断" style="rounded=0;whiteSpace=wrap;html=1;strokeColor=default;align=center;verticalAlign=middle;fontFamily=宋体;fontSize=14;fontColor=default;fillColor=default;" parent="1" vertex="1">
          <mxGeometry x="1047.5" y="120" width="60" height="20" as="geometry" />
        </mxCell>
        <mxCell id="p5TeQGGZOSFcAktKHEvx-52" value="词嵌入" style="rounded=0;whiteSpace=wrap;html=1;strokeColor=default;align=center;verticalAlign=middle;fontFamily=宋体;fontSize=14;fontColor=default;fillColor=default;" parent="1" vertex="1">
          <mxGeometry x="1112.5" y="120" width="60" height="20" as="geometry" />
        </mxCell>
        <mxCell id="p5TeQGGZOSFcAktKHEvx-63" value="" style="rounded=1;whiteSpace=wrap;html=1;strokeColor=default;align=center;verticalAlign=middle;fontFamily=Helvetica;fontSize=12;fontColor=default;fillColor=default;" parent="1" vertex="1">
          <mxGeometry x="765" y="200" width="435" height="220" as="geometry" />
        </mxCell>
        <mxCell id="p5TeQGGZOSFcAktKHEvx-65" value="" style="html=1;shadow=0;dashed=0;align=center;verticalAlign=middle;shape=mxgraph.arrows2.arrow;dy=0.41;dx=8;direction=south;notch=0;rounded=0;dashPattern=8 8;strokeColor=default;fontFamily=Helvetica;fontSize=12;fontColor=default;fillColor=default;rotation=-90;" parent="1" vertex="1">
          <mxGeometry x="740" y="245" width="20" height="20" as="geometry" />
        </mxCell>
        <mxCell id="p5TeQGGZOSFcAktKHEvx-66" value="&lt;b style=&quot;font-size: 16px;&quot;&gt;&lt;font style=&quot;font-size: 16px;&quot; face=&quot;Times New Roman&quot;&gt;LoRA&lt;/font&gt;&lt;font style=&quot;font-size: 16px;&quot; face=&quot;宋体&quot;&gt;参数高效微调&lt;/font&gt;&lt;/b&gt;" style="text;html=1;align=center;verticalAlign=middle;whiteSpace=wrap;rounded=0;fontFamily=Helvetica;fontSize=12;fontColor=default;" parent="1" vertex="1">
          <mxGeometry x="772.5" y="375" width="155" height="30" as="geometry" />
        </mxCell>
        <mxCell id="sX8R1PPLeMM2Gcwgd5iX-1" style="edgeStyle=orthogonalEdgeStyle;rounded=0;orthogonalLoop=1;jettySize=auto;html=1;exitX=0.5;exitY=1;exitDx=0;exitDy=0;entryX=0.5;entryY=0;entryDx=0;entryDy=0;endArrow=classicThin;endFill=1;" edge="1" parent="1" source="p5TeQGGZOSFcAktKHEvx-80" target="p5TeQGGZOSFcAktKHEvx-73">
          <mxGeometry relative="1" as="geometry" />
        </mxCell>
        <mxCell id="p5TeQGGZOSFcAktKHEvx-80" value="" style="rounded=0;whiteSpace=wrap;html=1;dashed=1;strokeColor=default;align=center;verticalAlign=middle;fontFamily=宋体;fontSize=12;fontColor=default;fillColor=default;" parent="1" vertex="1">
          <mxGeometry x="776.25" y="220" width="410" height="60" as="geometry" />
        </mxCell>
        <mxCell id="p5TeQGGZOSFcAktKHEvx-70" value="加载模型配置项" style="rounded=0;whiteSpace=wrap;html=1;strokeColor=default;align=center;verticalAlign=middle;fontFamily=宋体;fontSize=14;fontColor=default;fillColor=default;" parent="1" vertex="1">
          <mxGeometry x="836.25" y="240" width="110" height="20" as="geometry" />
        </mxCell>
        <mxCell id="p5TeQGGZOSFcAktKHEvx-71" value="加载预训练模型" style="rounded=0;whiteSpace=wrap;html=1;strokeColor=default;align=center;verticalAlign=middle;fontFamily=宋体;fontSize=14;fontColor=default;fillColor=default;" parent="1" vertex="1">
          <mxGeometry x="951.25" y="240" width="110" height="20" as="geometry" />
        </mxCell>
        <mxCell id="p5TeQGGZOSFcAktKHEvx-72" value="加载分词器" style="rounded=0;whiteSpace=wrap;html=1;strokeColor=default;align=center;verticalAlign=middle;fontFamily=宋体;fontSize=14;fontColor=default;fillColor=default;" parent="1" vertex="1">
          <mxGeometry x="1066.88" y="240" width="110" height="20" as="geometry" />
        </mxCell>
        <mxCell id="p5TeQGGZOSFcAktKHEvx-85" style="edgeStyle=orthogonalEdgeStyle;rounded=0;orthogonalLoop=1;jettySize=auto;html=1;exitX=0.5;exitY=1;exitDx=0;exitDy=0;entryX=0.5;entryY=0;entryDx=0;entryDy=0;fontFamily=Helvetica;fontSize=12;fontColor=default;endArrow=classicThin;endFill=1;" parent="1" source="p5TeQGGZOSFcAktKHEvx-73" target="p5TeQGGZOSFcAktKHEvx-82" edge="1">
          <mxGeometry relative="1" as="geometry" />
        </mxCell>
        <mxCell id="p5TeQGGZOSFcAktKHEvx-73" value="" style="rounded=0;whiteSpace=wrap;html=1;dashed=1;strokeColor=default;align=center;verticalAlign=middle;fontFamily=宋体;fontSize=12;fontColor=default;fillColor=default;" parent="1" vertex="1">
          <mxGeometry x="776.88" y="300" width="410" height="60" as="geometry" />
        </mxCell>
        <mxCell id="p5TeQGGZOSFcAktKHEvx-75" value="加载LoRA配置项" style="rounded=0;whiteSpace=wrap;html=1;strokeColor=default;align=center;verticalAlign=middle;fontFamily=宋体;fontSize=14;fontColor=default;fillColor=default;" parent="1" vertex="1">
          <mxGeometry x="835" y="320" width="110" height="20" as="geometry" />
        </mxCell>
        <mxCell id="p5TeQGGZOSFcAktKHEvx-76" value="构造适配器" style="rounded=0;whiteSpace=wrap;html=1;strokeColor=default;align=center;verticalAlign=middle;fontFamily=宋体;fontSize=14;fontColor=default;fillColor=default;" parent="1" vertex="1">
          <mxGeometry x="951.25" y="320" width="110" height="20" as="geometry" />
        </mxCell>
        <mxCell id="p5TeQGGZOSFcAktKHEvx-78" value="模型重构" style="rounded=0;whiteSpace=wrap;html=1;strokeColor=default;align=center;verticalAlign=middle;fontFamily=宋体;fontSize=14;fontColor=default;fillColor=default;" parent="1" vertex="1">
          <mxGeometry x="1066.88" y="320" width="110" height="20" as="geometry" />
        </mxCell>
        <mxCell id="p5TeQGGZOSFcAktKHEvx-91" style="edgeStyle=orthogonalEdgeStyle;rounded=0;orthogonalLoop=1;jettySize=auto;html=1;exitX=1;exitY=0.5;exitDx=0;exitDy=0;entryX=0;entryY=0.5;entryDx=0;entryDy=0;fontFamily=Helvetica;fontSize=12;fontColor=default;endArrow=classicThin;endFill=1;" parent="1" source="p5TeQGGZOSFcAktKHEvx-82" target="p5TeQGGZOSFcAktKHEvx-83" edge="1">
          <mxGeometry relative="1" as="geometry" />
        </mxCell>
        <mxCell id="p5TeQGGZOSFcAktKHEvx-82" value="有监督训练" style="rounded=0;whiteSpace=wrap;html=1;strokeColor=default;align=center;verticalAlign=middle;fontFamily=宋体;fontSize=14;fontColor=default;fillColor=default;" parent="1" vertex="1">
          <mxGeometry x="928.13" y="380" width="110" height="20" as="geometry" />
        </mxCell>
        <mxCell id="p5TeQGGZOSFcAktKHEvx-83" value="模型评估" style="rounded=0;whiteSpace=wrap;html=1;strokeColor=default;align=center;verticalAlign=middle;fontFamily=宋体;fontSize=14;fontColor=default;fillColor=default;" parent="1" vertex="1">
          <mxGeometry x="1066.88" y="380" width="110" height="20" as="geometry" />
        </mxCell>
        <mxCell id="p5TeQGGZOSFcAktKHEvx-89" value="&lt;font style=&quot;font-size: 14px;&quot; face=&quot;宋体&quot;&gt;&lt;b style=&quot;font-size: 14px;&quot;&gt;加载模型&lt;/b&gt;&lt;/font&gt;" style="rounded=0;whiteSpace=wrap;html=1;strokeColor=default;align=center;verticalAlign=middle;fontFamily=Helvetica;fontSize=14;fontColor=default;fillColor=default;" parent="1" vertex="1">
          <mxGeometry x="786.25" y="230" width="40" height="40" as="geometry" />
        </mxCell>
        <mxCell id="p5TeQGGZOSFcAktKHEvx-92" value="" style="rounded=0;whiteSpace=wrap;html=1;dashed=1;dashPattern=8 8;" parent="1" vertex="1">
          <mxGeometry x="370" y="500" width="840" height="790" as="geometry" />
        </mxCell>
        <mxCell id="p5TeQGGZOSFcAktKHEvx-96" value="&lt;div style=&quot;font-size: 14px;&quot;&gt;&lt;font style=&quot;font-size: 14px;&quot; face=&quot;宋体&quot;&gt;计算机体系结构&lt;/font&gt;&lt;/div&gt;&lt;div style=&quot;font-size: 14px;&quot;&gt;&lt;font style=&quot;font-size: 14px;&quot;&gt;&lt;font style=&quot;font-size: 14px;&quot; face=&quot;宋体&quot;&gt;CUDA-C++&lt;/font&gt;&lt;span style=&quot;font-family: 宋体; background-color: initial;&quot;&gt;程序设计&lt;/span&gt;&lt;/font&gt;&lt;/div&gt;&lt;div style=&quot;font-size: 14px;&quot;&gt;&lt;font style=&quot;font-size: 14px;&quot; face=&quot;宋体&quot;&gt;并行计算&lt;/font&gt;&lt;/div&gt;&lt;div style=&quot;font-size: 14px;&quot;&gt;&lt;font style=&quot;font-size: 14px;&quot; face=&quot;宋体&quot;&gt;算法分析与设计&lt;/font&gt;&lt;/div&gt;&lt;div style=&quot;font-size: 14px;&quot;&gt;&lt;font style=&quot;font-size: 14px;&quot; face=&quot;宋体&quot;&gt;编译原理&lt;/font&gt;&lt;/div&gt;" style="rounded=0;whiteSpace=wrap;html=1;dashed=1;dashPattern=8 8;" parent="1" vertex="1">
          <mxGeometry x="230" y="500" width="120" height="790" as="geometry" />
        </mxCell>
        <mxCell id="p5TeQGGZOSFcAktKHEvx-105" value="&lt;p style=&quot;font-size: 18px;&quot;&gt;&lt;b&gt;&lt;font style=&quot;font-size: 18px;&quot; face=&quot;宋体&quot;&gt;基于&lt;/font&gt;&lt;font style=&quot;font-size: 18px;&quot; face=&quot;宋体&quot;&gt;硬件&lt;/font&gt;&lt;font style=&quot;font-size: 18px;&quot; face=&quot;宋体&quot;&gt;感知的&lt;/font&gt;&lt;font style=&quot;font-size: 18px;&quot; face=&quot;Times New Roman&quot;&gt;Fused Attention Kernel&lt;/font&gt;&lt;font style=&quot;font-size: 18px;&quot; face=&quot;宋体&quot;&gt;优化&lt;/font&gt;&lt;/b&gt;&lt;/p&gt;" style="text;html=1;align=center;verticalAlign=middle;whiteSpace=wrap;rounded=0;fontFamily=Times New Roman;fontSize=14;" parent="1" vertex="1">
          <mxGeometry x="607.5" y="515" width="355" height="30" as="geometry" />
        </mxCell>
        <mxCell id="p5TeQGGZOSFcAktKHEvx-106" value="" style="rounded=1;whiteSpace=wrap;html=1;align=center;verticalAlign=middle;fontFamily=Times New Roman;fontSize=14;fontColor=default;fillColor=none;gradientColor=none;" parent="1" vertex="1">
          <mxGeometry x="380" y="550" width="590" height="240" as="geometry" />
        </mxCell>
        <mxCell id="p5TeQGGZOSFcAktKHEvx-122" style="edgeStyle=orthogonalEdgeStyle;rounded=0;orthogonalLoop=1;jettySize=auto;html=1;exitX=1;exitY=0.5;exitDx=0;exitDy=0;entryX=0;entryY=0.5;entryDx=0;entryDy=0;endArrow=classicThin;endFill=1;" parent="1" source="p5TeQGGZOSFcAktKHEvx-110" target="p5TeQGGZOSFcAktKHEvx-118" edge="1">
          <mxGeometry relative="1" as="geometry" />
        </mxCell>
        <mxCell id="p5TeQGGZOSFcAktKHEvx-110" value="&lt;font style=&quot;font-size: 14px;&quot; face=&quot;Times New Roman&quot;&gt;3-Pass Safe-Softmax&lt;/font&gt;" style="rounded=0;whiteSpace=wrap;html=1;align=center;verticalAlign=middle;fontFamily=Times New Roman;fontSize=14;fontColor=default;fillColor=none;gradientColor=none;" parent="1" vertex="1">
          <mxGeometry x="440" y="600" width="110" height="30" as="geometry" />
        </mxCell>
        <mxCell id="p5TeQGGZOSFcAktKHEvx-114" value="" style="html=1;shadow=0;dashed=0;align=center;verticalAlign=middle;shape=mxgraph.arrows2.arrow;dy=0.41;dx=8;direction=south;notch=0;rounded=0;dashPattern=8 8;strokeColor=default;fontFamily=Helvetica;fontSize=12;fontColor=default;fillColor=default;" parent="1" vertex="1">
          <mxGeometry x="755" y="460" width="20" height="20" as="geometry" />
        </mxCell>
        <mxCell id="p5TeQGGZOSFcAktKHEvx-123" style="edgeStyle=orthogonalEdgeStyle;rounded=0;orthogonalLoop=1;jettySize=auto;html=1;exitX=1;exitY=0.5;exitDx=0;exitDy=0;entryX=0;entryY=0.5;entryDx=0;entryDy=0;strokeColor=default;align=center;verticalAlign=middle;fontFamily=Helvetica;fontSize=11;fontColor=default;labelBackgroundColor=default;endArrow=classicThin;endFill=1;" parent="1" source="p5TeQGGZOSFcAktKHEvx-118" target="p5TeQGGZOSFcAktKHEvx-120" edge="1">
          <mxGeometry relative="1" as="geometry" />
        </mxCell>
        <mxCell id="p5TeQGGZOSFcAktKHEvx-118" value="&lt;font style=&quot;font-size: 14px;&quot; face=&quot;Times New Roman&quot;&gt;2-Pass Online-Softmax&lt;/font&gt;" style="rounded=0;whiteSpace=wrap;html=1;align=center;verticalAlign=middle;fontFamily=Times New Roman;fontSize=14;fontColor=default;fillColor=none;gradientColor=none;" parent="1" vertex="1">
          <mxGeometry x="575" y="600" width="120" height="30" as="geometry" />
        </mxCell>
        <mxCell id="p5TeQGGZOSFcAktKHEvx-124" style="edgeStyle=orthogonalEdgeStyle;rounded=0;orthogonalLoop=1;jettySize=auto;html=1;exitX=0.5;exitY=1;exitDx=0;exitDy=0;entryX=0.5;entryY=0;entryDx=0;entryDy=0;strokeColor=default;align=center;verticalAlign=middle;fontFamily=Helvetica;fontSize=11;fontColor=default;labelBackgroundColor=default;endArrow=classicThin;endFill=1;" parent="1" source="p5TeQGGZOSFcAktKHEvx-120" target="p5TeQGGZOSFcAktKHEvx-121" edge="1">
          <mxGeometry relative="1" as="geometry" />
        </mxCell>
        <mxCell id="p5TeQGGZOSFcAktKHEvx-120" value="&lt;font style=&quot;font-size: 14px;&quot; face=&quot;Times New Roman&quot;&gt;1-Pass Attention&lt;/font&gt;" style="rounded=0;whiteSpace=wrap;html=1;align=center;verticalAlign=middle;fontFamily=Times New Roman;fontSize=14;fontColor=default;fillColor=none;gradientColor=none;" parent="1" vertex="1">
          <mxGeometry x="720" y="600" width="120" height="30" as="geometry" />
        </mxCell>
        <mxCell id="p5TeQGGZOSFcAktKHEvx-126" style="edgeStyle=orthogonalEdgeStyle;rounded=0;orthogonalLoop=1;jettySize=auto;html=1;exitX=0.5;exitY=1;exitDx=0;exitDy=0;entryX=0.5;entryY=0;entryDx=0;entryDy=0;strokeColor=default;align=center;verticalAlign=middle;fontFamily=Helvetica;fontSize=11;fontColor=default;labelBackgroundColor=default;endArrow=classicThin;endFill=1;" parent="1" source="p5TeQGGZOSFcAktKHEvx-121" target="p5TeQGGZOSFcAktKHEvx-125" edge="1">
          <mxGeometry relative="1" as="geometry" />
        </mxCell>
        <mxCell id="p5TeQGGZOSFcAktKHEvx-121" value="&lt;font style=&quot;font-size: 14px;&quot; face=&quot;Times New Roman&quot;&gt;FlashAttention V1&lt;/font&gt;" style="rounded=0;whiteSpace=wrap;html=1;align=center;verticalAlign=middle;fontFamily=Times New Roman;fontSize=14;fontColor=default;fillColor=none;gradientColor=none;" parent="1" vertex="1">
          <mxGeometry x="720" y="670" width="120" height="30" as="geometry" />
        </mxCell>
        <mxCell id="p5TeQGGZOSFcAktKHEvx-195" style="edgeStyle=orthogonalEdgeStyle;rounded=0;orthogonalLoop=1;jettySize=auto;html=1;exitX=0;exitY=0.5;exitDx=0;exitDy=0;entryX=1;entryY=0.5;entryDx=0;entryDy=0;strokeColor=default;align=center;verticalAlign=middle;fontFamily=Times New Roman;fontSize=14;fontColor=default;labelBackgroundColor=default;endArrow=classicThin;endFill=1;" parent="1" source="p5TeQGGZOSFcAktKHEvx-125" target="p5TeQGGZOSFcAktKHEvx-193" edge="1">
          <mxGeometry relative="1" as="geometry" />
        </mxCell>
        <mxCell id="p5TeQGGZOSFcAktKHEvx-125" value="&lt;font style=&quot;font-size: 14px;&quot; face=&quot;Times New Roman&quot;&gt;FlashAttention V2&lt;/font&gt;" style="rounded=0;whiteSpace=wrap;html=1;align=center;verticalAlign=middle;fontFamily=Times New Roman;fontSize=14;fontColor=default;fillColor=none;gradientColor=none;" parent="1" vertex="1">
          <mxGeometry x="720" y="740" width="120" height="30" as="geometry" />
        </mxCell>
        <mxCell id="p5TeQGGZOSFcAktKHEvx-129" style="edgeStyle=orthogonalEdgeStyle;rounded=0;orthogonalLoop=1;jettySize=auto;html=1;exitX=1;exitY=0.5;exitDx=0;exitDy=0;strokeColor=default;align=center;verticalAlign=middle;fontFamily=Times New Roman;fontSize=14;fontColor=default;labelBackgroundColor=default;endArrow=classicThin;endFill=1;" parent="1" source="p5TeQGGZOSFcAktKHEvx-127" target="p5TeQGGZOSFcAktKHEvx-121" edge="1">
          <mxGeometry relative="1" as="geometry" />
        </mxCell>
        <mxCell id="p5TeQGGZOSFcAktKHEvx-127" value="&lt;span style=&quot;font-size: 14px;&quot;&gt;&lt;font style=&quot;font-size: 14px;&quot; face=&quot;宋体&quot;&gt;高效显存注意力&lt;/font&gt;&lt;/span&gt;" style="rounded=0;whiteSpace=wrap;html=1;align=center;verticalAlign=middle;fontFamily=Times New Roman;fontSize=14;fontColor=default;fillColor=none;gradientColor=none;" parent="1" vertex="1">
          <mxGeometry x="440" y="670" width="110" height="30" as="geometry" />
        </mxCell>
        <mxCell id="p5TeQGGZOSFcAktKHEvx-130" style="edgeStyle=orthogonalEdgeStyle;rounded=0;orthogonalLoop=1;jettySize=auto;html=1;exitX=0.5;exitY=0;exitDx=0;exitDy=0;entryX=0.5;entryY=1;entryDx=0;entryDy=0;strokeColor=default;align=center;verticalAlign=middle;fontFamily=Times New Roman;fontSize=14;fontColor=default;labelBackgroundColor=default;endArrow=classicThin;endFill=1;" parent="1" source="p5TeQGGZOSFcAktKHEvx-128" target="p5TeQGGZOSFcAktKHEvx-127" edge="1">
          <mxGeometry relative="1" as="geometry" />
        </mxCell>
        <mxCell id="p5TeQGGZOSFcAktKHEvx-128" value="&lt;span style=&quot;font-size: 14px;&quot;&gt;&lt;font style=&quot;font-size: 14px;&quot; face=&quot;宋体&quot;&gt;标准自注意力&lt;/font&gt;&lt;/span&gt;" style="rounded=0;whiteSpace=wrap;html=1;align=center;verticalAlign=middle;fontFamily=Times New Roman;fontSize=14;fontColor=default;fillColor=none;gradientColor=none;" parent="1" vertex="1">
          <mxGeometry x="440" y="740" width="110" height="30" as="geometry" />
        </mxCell>
        <mxCell id="p5TeQGGZOSFcAktKHEvx-131" value="&lt;div style=&quot;font-size: 14px;&quot;&gt;&lt;font style=&quot;font-size: 14px;&quot; face=&quot;Times New Roman&quot;&gt;Pytorch&lt;/font&gt;&lt;/div&gt;&lt;div style=&quot;font-size: 14px;&quot;&gt;&lt;font style=&quot;font-size: 14px;&quot; face=&quot;Times New Roman&quot;&gt;MindSpore&lt;/font&gt;&lt;/div&gt;&lt;div style=&quot;font-size: 14px;&quot;&gt;&lt;font style=&quot;font-size: 14px;&quot; face=&quot;Times New Roman&quot;&gt;Triton&lt;/font&gt;&lt;/div&gt;&lt;div style=&quot;font-size: 14px;&quot;&gt;&lt;font style=&quot;font-size: 14px;&quot; face=&quot;Times New Roman&quot;&gt;CUDA&lt;/font&gt;&lt;/div&gt;&lt;font style=&quot;font-size: 14px;&quot; face=&quot;Times New Roman&quot;&gt;Pybind&lt;/font&gt;&lt;div style=&quot;font-size: 14px;&quot;&gt;&lt;div style=&quot;&quot;&gt;&lt;font style=&quot;font-size: 14px;&quot; face=&quot;Times New Roman&quot;&gt;MindInsight&lt;/font&gt;&lt;/div&gt;&lt;div style=&quot;&quot;&gt;&lt;font style=&quot;font-size: 14px;&quot; face=&quot;Times New Roman&quot;&gt;&lt;br&gt;&lt;/font&gt;&lt;div&gt;&lt;font style=&quot;font-size: 14px;&quot; face=&quot;Times New Roman&quot;&gt;&lt;br&gt;&lt;/font&gt;&lt;/div&gt;&lt;/div&gt;&lt;/div&gt;" style="rounded=0;whiteSpace=wrap;html=1;dashed=1;dashPattern=8 8;" parent="1" vertex="1">
          <mxGeometry x="1230" y="500" width="80" height="790" as="geometry" />
        </mxCell>
        <mxCell id="p5TeQGGZOSFcAktKHEvx-133" value="" style="rounded=1;whiteSpace=wrap;html=1;align=center;verticalAlign=middle;fontFamily=Times New Roman;fontSize=14;fontColor=default;fillColor=none;gradientColor=none;" parent="1" vertex="1">
          <mxGeometry x="380" y="850" width="590" height="400" as="geometry" />
        </mxCell>
        <mxCell id="p5TeQGGZOSFcAktKHEvx-134" value="" style="rounded=0;whiteSpace=wrap;html=1;dashed=1;strokeColor=default;align=center;verticalAlign=middle;fontFamily=宋体;fontSize=12;fontColor=default;fillColor=default;" parent="1" vertex="1">
          <mxGeometry x="390" y="890" width="280" height="270" as="geometry" />
        </mxCell>
        <mxCell id="p5TeQGGZOSFcAktKHEvx-135" value="&lt;b style=&quot;&quot;&gt;&lt;font style=&quot;font-size: 16px;&quot; face=&quot;宋体&quot;&gt;技术路线&lt;/font&gt;&lt;/b&gt;" style="text;html=1;align=center;verticalAlign=middle;whiteSpace=wrap;rounded=0;fontFamily=Helvetica;fontSize=12;fontColor=default;" parent="1" vertex="1">
          <mxGeometry x="410" y="860" width="80" height="30" as="geometry" />
        </mxCell>
        <mxCell id="p5TeQGGZOSFcAktKHEvx-136" value="&lt;font style=&quot;font-size: 14px;&quot; face=&quot;Times New Roman&quot;&gt;OpenAI Triton&lt;/font&gt;" style="rounded=0;whiteSpace=wrap;html=1;strokeColor=default;align=center;verticalAlign=middle;fontFamily=Helvetica;fontSize=14;fontColor=default;fillColor=default;" parent="1" vertex="1">
          <mxGeometry x="390" y="890" width="90" height="20" as="geometry" />
        </mxCell>
        <mxCell id="p5TeQGGZOSFcAktKHEvx-138" value="" style="rounded=0;whiteSpace=wrap;html=1;dashed=1;strokeColor=default;align=center;verticalAlign=middle;fontFamily=宋体;fontSize=12;fontColor=default;fillColor=default;" parent="1" vertex="1">
          <mxGeometry x="680" y="890" width="280" height="270" as="geometry" />
        </mxCell>
        <mxCell id="p5TeQGGZOSFcAktKHEvx-139" value="&lt;font style=&quot;font-size: 14px;&quot; face=&quot;Times New Roman&quot;&gt;Pure CUDA-C++&lt;/font&gt;" style="rounded=0;whiteSpace=wrap;html=1;strokeColor=default;align=center;verticalAlign=middle;fontFamily=Helvetica;fontSize=14;fontColor=default;fillColor=default;" parent="1" vertex="1">
          <mxGeometry x="680" y="890" width="110" height="20" as="geometry" />
        </mxCell>
        <mxCell id="p5TeQGGZOSFcAktKHEvx-143" value="JIT" style="edgeStyle=orthogonalEdgeStyle;rounded=0;orthogonalLoop=1;jettySize=auto;html=1;exitX=0.5;exitY=1;exitDx=0;exitDy=0;strokeColor=default;align=center;verticalAlign=middle;fontFamily=Times New Roman;fontSize=14;fontColor=default;labelBackgroundColor=default;endArrow=classicThin;endFill=1;entryX=0.5;entryY=0;entryDx=0;entryDy=0;" parent="1" source="p5TeQGGZOSFcAktKHEvx-140" target="p5TeQGGZOSFcAktKHEvx-142" edge="1">
          <mxGeometry x="-0.0909" relative="1" as="geometry">
            <mxPoint x="527.4999999999998" y="955" as="sourcePoint" />
            <mxPoint x="462.5000000000002" y="1005" as="targetPoint" />
            <Array as="points">
              <mxPoint x="530" y="970" />
              <mxPoint x="460" y="970" />
            </Array>
            <mxPoint as="offset" />
          </mxGeometry>
        </mxCell>
        <mxCell id="p5TeQGGZOSFcAktKHEvx-172" value="AOT" style="edgeStyle=orthogonalEdgeStyle;rounded=0;orthogonalLoop=1;jettySize=auto;html=1;exitX=0.5;exitY=1;exitDx=0;exitDy=0;entryX=0.5;entryY=0;entryDx=0;entryDy=0;strokeColor=default;align=center;verticalAlign=middle;fontFamily=Times New Roman;fontSize=14;fontColor=default;labelBackgroundColor=default;endArrow=classicThin;endFill=1;" parent="1" source="p5TeQGGZOSFcAktKHEvx-140" target="p5TeQGGZOSFcAktKHEvx-144" edge="1">
          <mxGeometry x="-0.0774" relative="1" as="geometry">
            <mxPoint x="527.4999999999998" y="955" as="sourcePoint" />
            <mxPoint x="587.4999999999998" y="1005" as="targetPoint" />
            <Array as="points">
              <mxPoint x="530" y="950" />
              <mxPoint x="530" y="970" />
              <mxPoint x="600" y="970" />
            </Array>
            <mxPoint as="offset" />
          </mxGeometry>
        </mxCell>
        <mxCell id="p5TeQGGZOSFcAktKHEvx-140" value="块级计算核设计" style="rounded=0;whiteSpace=wrap;html=1;strokeColor=default;align=center;verticalAlign=middle;fontFamily=宋体;fontSize=14;fontColor=default;fillColor=default;" parent="1" vertex="1">
          <mxGeometry x="470" y="920" width="120" height="30" as="geometry" />
        </mxCell>
        <mxCell id="p5TeQGGZOSFcAktKHEvx-168" value="JIT" style="edgeStyle=orthogonalEdgeStyle;rounded=0;orthogonalLoop=1;jettySize=auto;html=1;exitX=0.5;exitY=1;exitDx=0;exitDy=0;entryX=0.5;entryY=0;entryDx=0;entryDy=0;strokeColor=default;align=center;verticalAlign=middle;fontFamily=Times New Roman;fontSize=14;fontColor=default;labelBackgroundColor=default;endArrow=classicThin;endFill=1;" parent="1" source="p5TeQGGZOSFcAktKHEvx-141" target="p5TeQGGZOSFcAktKHEvx-167" edge="1">
          <mxGeometry x="-0.0906" relative="1" as="geometry">
            <Array as="points">
              <mxPoint x="816" y="970" />
              <mxPoint x="760" y="970" />
              <mxPoint x="760" y="1010" />
            </Array>
            <mxPoint as="offset" />
          </mxGeometry>
        </mxCell>
        <mxCell id="p5TeQGGZOSFcAktKHEvx-209" style="edgeStyle=orthogonalEdgeStyle;rounded=0;orthogonalLoop=1;jettySize=auto;html=1;exitX=0.5;exitY=1;exitDx=0;exitDy=0;entryX=0.5;entryY=0;entryDx=0;entryDy=0;strokeColor=default;align=center;verticalAlign=middle;fontFamily=Times New Roman;fontSize=14;fontColor=default;labelBackgroundColor=default;endArrow=classicThin;endFill=1;" parent="1" source="p5TeQGGZOSFcAktKHEvx-141" target="p5TeQGGZOSFcAktKHEvx-157" edge="1">
          <mxGeometry relative="1" as="geometry">
            <Array as="points">
              <mxPoint x="810" y="970" />
              <mxPoint x="870" y="970" />
            </Array>
          </mxGeometry>
        </mxCell>
        <mxCell id="p5TeQGGZOSFcAktKHEvx-210" value="AOT" style="edgeLabel;html=1;align=center;verticalAlign=middle;resizable=0;points=[];rounded=0;strokeColor=default;fontFamily=Times New Roman;fontSize=14;fontColor=default;fillColor=none;gradientColor=none;" parent="p5TeQGGZOSFcAktKHEvx-209" vertex="1" connectable="0">
          <mxGeometry relative="1" as="geometry">
            <mxPoint as="offset" />
          </mxGeometry>
        </mxCell>
        <mxCell id="p5TeQGGZOSFcAktKHEvx-141" value="线程级计算核设计" style="rounded=0;whiteSpace=wrap;html=1;strokeColor=default;align=center;verticalAlign=middle;fontFamily=宋体;fontSize=14;fontColor=default;fillColor=default;" parent="1" vertex="1">
          <mxGeometry x="756.25" y="920" width="120" height="30" as="geometry" />
        </mxCell>
        <mxCell id="p5TeQGGZOSFcAktKHEvx-212" style="edgeStyle=orthogonalEdgeStyle;rounded=0;orthogonalLoop=1;jettySize=auto;html=1;exitX=0.5;exitY=1;exitDx=0;exitDy=0;entryX=0.5;entryY=0;entryDx=0;entryDy=0;strokeColor=default;align=center;verticalAlign=middle;fontFamily=Times New Roman;fontSize=14;fontColor=default;labelBackgroundColor=default;endArrow=classicThin;endFill=1;" parent="1" source="p5TeQGGZOSFcAktKHEvx-142" edge="1" target="p5TeQGGZOSFcAktKHEvx-196">
          <mxGeometry relative="1" as="geometry">
            <mxPoint x="652.5" y="1165" as="targetPoint" />
            <Array as="points">
              <mxPoint x="460" y="1180" />
              <mxPoint x="675" y="1180" />
            </Array>
          </mxGeometry>
        </mxCell>
        <mxCell id="p5TeQGGZOSFcAktKHEvx-142" value="定义&lt;font style=&quot;font-size: 14px;&quot; face=&quot;Times New Roman&quot;&gt;torch&lt;/font&gt;算子" style="rounded=0;whiteSpace=wrap;html=1;strokeColor=default;align=center;verticalAlign=middle;fontFamily=宋体;fontSize=14;fontColor=default;fillColor=default;" parent="1" vertex="1">
          <mxGeometry x="400" y="1010" width="120" height="30" as="geometry" />
        </mxCell>
        <mxCell id="p5TeQGGZOSFcAktKHEvx-147" value="" style="edgeStyle=orthogonalEdgeStyle;rounded=0;orthogonalLoop=1;jettySize=auto;html=1;exitX=0.5;exitY=1;exitDx=0;exitDy=0;entryX=0.5;entryY=0;entryDx=0;entryDy=0;strokeColor=default;align=center;verticalAlign=middle;fontFamily=Times New Roman;fontSize=14;fontColor=default;labelBackgroundColor=default;endArrow=classicThin;endFill=1;" parent="1" source="p5TeQGGZOSFcAktKHEvx-144" target="p5TeQGGZOSFcAktKHEvx-146" edge="1">
          <mxGeometry relative="1" as="geometry" />
        </mxCell>
        <mxCell id="p5TeQGGZOSFcAktKHEvx-144" value="AOT编译" style="rounded=0;whiteSpace=wrap;html=1;strokeColor=default;align=center;verticalAlign=middle;fontFamily=宋体;fontSize=14;fontColor=default;fillColor=default;" parent="1" vertex="1">
          <mxGeometry x="540" y="1010" width="120" height="30" as="geometry" />
        </mxCell>
        <mxCell id="p5TeQGGZOSFcAktKHEvx-150" style="edgeStyle=orthogonalEdgeStyle;rounded=0;orthogonalLoop=1;jettySize=auto;html=1;exitX=0.5;exitY=1;exitDx=0;exitDy=0;entryX=0.5;entryY=0;entryDx=0;entryDy=0;strokeColor=default;align=center;verticalAlign=middle;fontFamily=Times New Roman;fontSize=14;fontColor=default;labelBackgroundColor=default;endArrow=classicThin;endFill=1;" parent="1" source="p5TeQGGZOSFcAktKHEvx-146" target="p5TeQGGZOSFcAktKHEvx-149" edge="1">
          <mxGeometry relative="1" as="geometry" />
        </mxCell>
        <mxCell id="p5TeQGGZOSFcAktKHEvx-146" value="链接" style="rounded=0;whiteSpace=wrap;html=1;strokeColor=default;align=center;verticalAlign=middle;fontFamily=宋体;fontSize=14;fontColor=default;fillColor=default;" parent="1" vertex="1">
          <mxGeometry x="540" y="1060" width="120" height="30" as="geometry" />
        </mxCell>
        <mxCell id="p5TeQGGZOSFcAktKHEvx-160" style="edgeStyle=orthogonalEdgeStyle;rounded=0;orthogonalLoop=1;jettySize=auto;html=1;exitX=0.5;exitY=1;exitDx=0;exitDy=0;entryX=0.5;entryY=0;entryDx=0;entryDy=0;strokeColor=default;align=center;verticalAlign=middle;fontFamily=Times New Roman;fontSize=14;fontColor=default;labelBackgroundColor=default;endArrow=classicThin;endFill=1;" parent="1" source="p5TeQGGZOSFcAktKHEvx-157" target="p5TeQGGZOSFcAktKHEvx-159" edge="1">
          <mxGeometry relative="1" as="geometry" />
        </mxCell>
        <mxCell id="p5TeQGGZOSFcAktKHEvx-157" value="&lt;font style=&quot;font-size: 14px;&quot; face=&quot;Times New Roman&quot;&gt;Custom&lt;/font&gt;自定义算子" style="rounded=0;whiteSpace=wrap;html=1;strokeColor=default;align=center;verticalAlign=middle;fontFamily=宋体;fontSize=14;fontColor=default;fillColor=default;" parent="1" vertex="1">
          <mxGeometry x="830" y="1010" width="120" height="30" as="geometry" />
        </mxCell>
        <mxCell id="p5TeQGGZOSFcAktKHEvx-165" style="edgeStyle=orthogonalEdgeStyle;rounded=0;orthogonalLoop=1;jettySize=auto;html=1;exitX=0.5;exitY=1;exitDx=0;exitDy=0;entryX=0.5;entryY=0;entryDx=0;entryDy=0;strokeColor=default;align=center;verticalAlign=middle;fontFamily=Times New Roman;fontSize=14;fontColor=default;labelBackgroundColor=default;endArrow=classicThin;endFill=1;" parent="1" source="p5TeQGGZOSFcAktKHEvx-159" target="p5TeQGGZOSFcAktKHEvx-161" edge="1">
          <mxGeometry relative="1" as="geometry" />
        </mxCell>
        <mxCell id="p5TeQGGZOSFcAktKHEvx-159" value="生成动态链接库" style="rounded=0;whiteSpace=wrap;html=1;strokeColor=default;align=center;verticalAlign=middle;fontFamily=宋体;fontSize=14;fontColor=default;fillColor=default;" parent="1" vertex="1">
          <mxGeometry x="830" y="1060" width="120" height="30" as="geometry" />
        </mxCell>
        <mxCell id="sX8R1PPLeMM2Gcwgd5iX-4" style="edgeStyle=orthogonalEdgeStyle;rounded=0;orthogonalLoop=1;jettySize=auto;html=1;exitX=0.5;exitY=1;exitDx=0;exitDy=0;entryX=0.5;entryY=0;entryDx=0;entryDy=0;endArrow=classicThin;endFill=1;" edge="1" parent="1" source="p5TeQGGZOSFcAktKHEvx-161" target="p5TeQGGZOSFcAktKHEvx-196">
          <mxGeometry relative="1" as="geometry">
            <Array as="points">
              <mxPoint x="890" y="1180" />
              <mxPoint x="675" y="1180" />
            </Array>
          </mxGeometry>
        </mxCell>
        <mxCell id="p5TeQGGZOSFcAktKHEvx-161" value="定义输出推导函数" style="rounded=0;whiteSpace=wrap;html=1;strokeColor=default;align=center;verticalAlign=middle;fontFamily=宋体;fontSize=14;fontColor=default;fillColor=default;" parent="1" vertex="1">
          <mxGeometry x="830" y="1110" width="120" height="30" as="geometry" />
        </mxCell>
        <mxCell id="p5TeQGGZOSFcAktKHEvx-170" style="edgeStyle=orthogonalEdgeStyle;rounded=0;orthogonalLoop=1;jettySize=auto;html=1;exitX=0.5;exitY=1;exitDx=0;exitDy=0;entryX=0.5;entryY=0;entryDx=0;entryDy=0;strokeColor=default;align=center;verticalAlign=middle;fontFamily=Times New Roman;fontSize=14;fontColor=default;labelBackgroundColor=default;endArrow=classicThin;endFill=1;" parent="1" source="p5TeQGGZOSFcAktKHEvx-167" target="p5TeQGGZOSFcAktKHEvx-169" edge="1">
          <mxGeometry relative="1" as="geometry" />
        </mxCell>
        <mxCell id="p5TeQGGZOSFcAktKHEvx-167" value="定义&lt;font style=&quot;font-size: 14px;&quot; face=&quot;Times New Roman&quot;&gt;torch&lt;/font&gt;算子" style="rounded=0;whiteSpace=wrap;html=1;strokeColor=default;align=center;verticalAlign=middle;fontFamily=宋体;fontSize=14;fontColor=default;fillColor=default;" parent="1" vertex="1">
          <mxGeometry x="690" y="1010" width="120" height="30" as="geometry" />
        </mxCell>
        <mxCell id="p5TeQGGZOSFcAktKHEvx-214" style="edgeStyle=orthogonalEdgeStyle;rounded=0;orthogonalLoop=1;jettySize=auto;html=1;exitX=0.5;exitY=1;exitDx=0;exitDy=0;strokeColor=default;align=center;verticalAlign=middle;fontFamily=Times New Roman;fontSize=14;fontColor=default;labelBackgroundColor=default;endArrow=classicThin;endFill=1;entryX=0.5;entryY=0;entryDx=0;entryDy=0;" parent="1" source="p5TeQGGZOSFcAktKHEvx-169" edge="1" target="p5TeQGGZOSFcAktKHEvx-196">
          <mxGeometry relative="1" as="geometry">
            <mxPoint x="660" y="1155" as="targetPoint" />
            <Array as="points">
              <mxPoint x="750" y="1180" />
              <mxPoint x="675" y="1180" />
            </Array>
          </mxGeometry>
        </mxCell>
        <mxCell id="p5TeQGGZOSFcAktKHEvx-169" value="&lt;font style=&quot;font-size: 14px;&quot; face=&quot;Times New Roman&quot;&gt;Pybind&lt;/font&gt;封装" style="rounded=0;whiteSpace=wrap;html=1;strokeColor=default;align=center;verticalAlign=middle;fontFamily=宋体;fontSize=14;fontColor=default;fillColor=default;" parent="1" vertex="1">
          <mxGeometry x="690" y="1060" width="120" height="30" as="geometry" />
        </mxCell>
        <mxCell id="p5TeQGGZOSFcAktKHEvx-180" value="&lt;font face=&quot;宋体&quot;&gt;API映射&lt;/font&gt;" style="html=1;shadow=0;dashed=0;align=center;verticalAlign=middle;shape=mxgraph.arrows2.arrow;dy=0;dx=30;notch=30;rounded=0;fontFamily=Times New Roman;fontSize=14;fontColor=default;fillColor=none;gradientColor=none;" parent="1" vertex="1">
          <mxGeometry x="404.96" y="200" width="160" height="30" as="geometry" />
        </mxCell>
        <mxCell id="p5TeQGGZOSFcAktKHEvx-182" style="edgeStyle=orthogonalEdgeStyle;rounded=0;orthogonalLoop=1;jettySize=auto;html=1;exitX=1;exitY=0.5;exitDx=0;exitDy=0;exitPerimeter=0;entryX=0;entryY=0.5;entryDx=30;entryDy=0;entryPerimeter=0;strokeColor=default;align=center;verticalAlign=middle;fontFamily=Times New Roman;fontSize=14;fontColor=default;labelBackgroundColor=default;endArrow=classicThin;endFill=1;dashed=1;dashPattern=1 2;" parent="1" source="p5TeQGGZOSFcAktKHEvx-11" target="p5TeQGGZOSFcAktKHEvx-180" edge="1">
          <mxGeometry relative="1" as="geometry">
            <Array as="points">
              <mxPoint x="709.96" y="165" />
              <mxPoint x="709.96" y="190" />
              <mxPoint x="389.96" y="190" />
              <mxPoint x="389.96" y="215" />
            </Array>
          </mxGeometry>
        </mxCell>
        <mxCell id="p5TeQGGZOSFcAktKHEvx-184" style="edgeStyle=orthogonalEdgeStyle;rounded=0;orthogonalLoop=1;jettySize=auto;html=1;exitX=1;exitY=0.5;exitDx=0;exitDy=0;exitPerimeter=0;entryX=0;entryY=0.5;entryDx=30;entryDy=0;entryPerimeter=0;strokeColor=default;align=center;verticalAlign=middle;fontFamily=Times New Roman;fontSize=14;fontColor=default;labelBackgroundColor=default;endArrow=classicThin;endFill=1;dashed=1;dashPattern=1 2;" parent="1" source="p5TeQGGZOSFcAktKHEvx-12" target="p5TeQGGZOSFcAktKHEvx-13" edge="1">
          <mxGeometry relative="1" as="geometry">
            <Array as="points">
              <mxPoint x="709.96" y="215" />
              <mxPoint x="709.96" y="240" />
              <mxPoint x="389.96" y="240" />
              <mxPoint x="389.96" y="265" />
            </Array>
          </mxGeometry>
        </mxCell>
        <mxCell id="p5TeQGGZOSFcAktKHEvx-185" style="edgeStyle=orthogonalEdgeStyle;rounded=0;orthogonalLoop=1;jettySize=auto;html=1;exitX=1;exitY=0.5;exitDx=0;exitDy=0;exitPerimeter=0;entryX=0;entryY=0.5;entryDx=30;entryDy=0;entryPerimeter=0;strokeColor=default;align=center;verticalAlign=middle;fontFamily=Times New Roman;fontSize=14;fontColor=default;labelBackgroundColor=default;endArrow=classicThin;endFill=1;dashed=1;dashPattern=1 2;" parent="1" source="p5TeQGGZOSFcAktKHEvx-15" target="p5TeQGGZOSFcAktKHEvx-16" edge="1">
          <mxGeometry relative="1" as="geometry">
            <Array as="points">
              <mxPoint x="709.96" y="265" />
              <mxPoint x="709.96" y="290" />
              <mxPoint x="389.96" y="290" />
              <mxPoint x="389.96" y="315" />
            </Array>
          </mxGeometry>
        </mxCell>
        <mxCell id="p5TeQGGZOSFcAktKHEvx-186" style="edgeStyle=orthogonalEdgeStyle;rounded=0;orthogonalLoop=1;jettySize=auto;html=1;exitX=1;exitY=0.5;exitDx=0;exitDy=0;exitPerimeter=0;entryX=0;entryY=0.5;entryDx=30;entryDy=0;entryPerimeter=0;strokeColor=default;align=center;verticalAlign=middle;fontFamily=Times New Roman;fontSize=14;fontColor=default;labelBackgroundColor=default;endArrow=classicThin;endFill=1;dashed=1;dashPattern=1 2;" parent="1" source="p5TeQGGZOSFcAktKHEvx-18" target="p5TeQGGZOSFcAktKHEvx-19" edge="1">
          <mxGeometry relative="1" as="geometry">
            <Array as="points">
              <mxPoint x="707.96" y="315" />
              <mxPoint x="707.96" y="340" />
              <mxPoint x="389.96" y="340" />
              <mxPoint x="389.96" y="365" />
            </Array>
          </mxGeometry>
        </mxCell>
        <mxCell id="p5TeQGGZOSFcAktKHEvx-190" value="&lt;font style=&quot;font-size: 14px;&quot; face=&quot;宋体&quot;&gt;&lt;b style=&quot;font-size: 14px;&quot;&gt;转换模型&lt;/b&gt;&lt;/font&gt;" style="rounded=0;whiteSpace=wrap;html=1;strokeColor=default;align=center;verticalAlign=middle;fontFamily=Helvetica;fontSize=14;fontColor=default;fillColor=default;" parent="1" vertex="1">
          <mxGeometry x="786.88" y="310" width="40" height="40" as="geometry" />
        </mxCell>
        <mxCell id="p5TeQGGZOSFcAktKHEvx-193" value="&lt;span style=&quot;font-size: 14px;&quot;&gt;Fused Attention&lt;/span&gt;" style="rounded=0;whiteSpace=wrap;html=1;align=center;verticalAlign=middle;fontFamily=Times New Roman;fontSize=14;fontColor=default;fillColor=none;gradientColor=none;" parent="1" vertex="1">
          <mxGeometry x="575" y="740" width="110" height="30" as="geometry" />
        </mxCell>
        <mxCell id="p5TeQGGZOSFcAktKHEvx-247" style="edgeStyle=orthogonalEdgeStyle;rounded=0;orthogonalLoop=1;jettySize=auto;html=1;exitX=0.5;exitY=1;exitDx=0;exitDy=0;entryX=0;entryY=0.5;entryDx=0;entryDy=0;strokeColor=default;align=center;verticalAlign=middle;fontFamily=Times New Roman;fontSize=14;fontColor=default;labelBackgroundColor=default;endArrow=classicThin;endFill=1;" parent="1" source="p5TeQGGZOSFcAktKHEvx-196" target="p5TeQGGZOSFcAktKHEvx-233" edge="1">
          <mxGeometry relative="1" as="geometry">
            <Array as="points">
              <mxPoint x="675" y="1260" />
              <mxPoint x="980" y="1260" />
              <mxPoint x="980" y="610" />
            </Array>
          </mxGeometry>
        </mxCell>
        <mxCell id="p5TeQGGZOSFcAktKHEvx-196" value="接入模型" style="rounded=0;whiteSpace=wrap;html=1;strokeColor=default;align=center;verticalAlign=middle;fontFamily=宋体;fontSize=14;fontColor=default;fillColor=default;" parent="1" vertex="1">
          <mxGeometry x="615" y="1200" width="120" height="30" as="geometry" />
        </mxCell>
        <mxCell id="p5TeQGGZOSFcAktKHEvx-211" style="edgeStyle=orthogonalEdgeStyle;rounded=0;orthogonalLoop=1;jettySize=auto;html=1;exitX=0.5;exitY=1;exitDx=0;exitDy=0;entryX=0.5;entryY=0;entryDx=0;entryDy=0;strokeColor=default;align=center;verticalAlign=middle;fontFamily=Times New Roman;fontSize=14;fontColor=default;labelBackgroundColor=default;endArrow=classicThin;endFill=1;" parent="1" source="p5TeQGGZOSFcAktKHEvx-149" edge="1" target="p5TeQGGZOSFcAktKHEvx-196">
          <mxGeometry relative="1" as="geometry">
            <mxPoint x="652.5" y="1165" as="targetPoint" />
            <Array as="points">
              <mxPoint x="600" y="1180" />
              <mxPoint x="675" y="1180" />
            </Array>
          </mxGeometry>
        </mxCell>
        <mxCell id="p5TeQGGZOSFcAktKHEvx-149" value="生成可执行文件" style="rounded=0;whiteSpace=wrap;html=1;strokeColor=default;align=center;verticalAlign=middle;fontFamily=宋体;fontSize=14;fontColor=default;fillColor=default;" parent="1" vertex="1">
          <mxGeometry x="540" y="1110" width="120" height="30" as="geometry" />
        </mxCell>
        <mxCell id="p5TeQGGZOSFcAktKHEvx-217" value="" style="html=1;shadow=0;dashed=0;align=center;verticalAlign=middle;shape=mxgraph.arrows2.arrow;dy=0.41;dx=8;direction=south;notch=0;rounded=0;dashPattern=8 8;strokeColor=default;fontFamily=Helvetica;fontSize=12;fontColor=default;fillColor=default;" parent="1" vertex="1">
          <mxGeometry x="665" y="810" width="20" height="20" as="geometry" />
        </mxCell>
        <mxCell id="p5TeQGGZOSFcAktKHEvx-220" value="&lt;font face=&quot;宋体&quot;&gt;减小&lt;/font&gt;IO&lt;font face=&quot;宋体&quot;&gt;开销&lt;/font&gt;" style="html=1;shadow=0;dashed=0;align=center;verticalAlign=middle;shape=mxgraph.arrows2.arrow;dy=0.4;dx=43;notch=0;rounded=0;strokeColor=default;fontFamily=Times New Roman;fontSize=14;fontColor=default;fillColor=none;gradientColor=none;" parent="1" vertex="1">
          <mxGeometry x="490" y="560" width="320" height="30" as="geometry" />
        </mxCell>
        <mxCell id="p5TeQGGZOSFcAktKHEvx-222" value="&lt;font face=&quot;宋体&quot;&gt;减&lt;/font&gt;&lt;div&gt;&lt;font face=&quot;宋体&quot;&gt;小&lt;/font&gt;&lt;/div&gt;&lt;div&gt;&lt;font face=&quot;宋体&quot;&gt;显&lt;/font&gt;&lt;/div&gt;&lt;div&gt;&lt;font face=&quot;宋体&quot;&gt;存&lt;/font&gt;&lt;/div&gt;&lt;div&gt;&lt;font face=&quot;宋体&quot;&gt;开&lt;/font&gt;&lt;/div&gt;&lt;div&gt;&lt;font face=&quot;宋体&quot;&gt;销&lt;/font&gt;&lt;/div&gt;" style="html=1;shadow=0;dashed=0;align=center;verticalAlign=middle;shape=mxgraph.arrows2.arrow;dy=0.39;dx=29.55;direction=north;notch=0;rounded=0;strokeColor=default;fontFamily=Times New Roman;fontSize=14;fontColor=default;fillColor=none;gradientColor=none;" parent="1" vertex="1">
          <mxGeometry x="390" y="590" width="30" height="180" as="geometry" />
        </mxCell>
        <mxCell id="p5TeQGGZOSFcAktKHEvx-225" value="" style="rounded=0;whiteSpace=wrap;html=1;dashed=1;strokeColor=default;align=center;verticalAlign=middle;fontFamily=宋体;fontSize=12;fontColor=default;fillColor=default;" parent="1" vertex="1">
          <mxGeometry x="857.5" y="580" width="100" height="180" as="geometry" />
        </mxCell>
        <mxCell id="p5TeQGGZOSFcAktKHEvx-226" value="&lt;font face=&quot;宋体&quot; style=&quot;font-size: 14px;&quot;&gt;分块&lt;/font&gt;" style="rounded=0;whiteSpace=wrap;html=1;align=center;verticalAlign=middle;fontFamily=Times New Roman;fontSize=14;fontColor=default;fillColor=none;gradientColor=none;" parent="1" vertex="1">
          <mxGeometry x="867.5" y="670" width="80" height="30" as="geometry" />
        </mxCell>
        <mxCell id="p5TeQGGZOSFcAktKHEvx-227" value="&lt;font face=&quot;宋体&quot; style=&quot;font-size: 14px;&quot;&gt;重计算&lt;/font&gt;" style="rounded=0;whiteSpace=wrap;html=1;align=center;verticalAlign=middle;fontFamily=Times New Roman;fontSize=14;fontColor=default;fillColor=none;gradientColor=none;" parent="1" vertex="1">
          <mxGeometry x="867.5" y="710" width="80" height="30" as="geometry" />
        </mxCell>
        <mxCell id="p5TeQGGZOSFcAktKHEvx-228" value="&lt;b style=&quot;font-size: 16px;&quot;&gt;&lt;font style=&quot;font-size: 16px;&quot; face=&quot;Times New Roman&quot;&gt;Fusion&lt;/font&gt;&lt;font style=&quot;font-size: 16px;&quot; face=&quot;宋体&quot;&gt;原理&lt;/font&gt;&lt;/b&gt;" style="text;html=1;align=center;verticalAlign=middle;whiteSpace=wrap;rounded=0;fontFamily=Helvetica;fontSize=12;fontColor=default;" parent="1" vertex="1">
          <mxGeometry x="383.75" y="560" width="100" height="30" as="geometry" />
        </mxCell>
        <mxCell id="p5TeQGGZOSFcAktKHEvx-109" value="&lt;font size=&quot;1&quot; style=&quot;&quot; face=&quot;宋体&quot;&gt;&lt;b style=&quot;font-size: 14px;&quot;&gt;核心技巧&lt;/b&gt;&lt;/font&gt;" style="text;html=1;align=center;verticalAlign=middle;whiteSpace=wrap;rounded=0;fontFamily=Helvetica;fontSize=12;fontColor=default;" parent="1" vertex="1">
          <mxGeometry x="867.5" y="595" width="80" height="20" as="geometry" />
        </mxCell>
        <mxCell id="p5TeQGGZOSFcAktKHEvx-229" value="&lt;font face=&quot;宋体&quot; style=&quot;font-size: 14px;&quot;&gt;循环优化&lt;/font&gt;" style="rounded=0;whiteSpace=wrap;html=1;align=center;verticalAlign=middle;fontFamily=Times New Roman;fontSize=14;fontColor=default;fillColor=none;gradientColor=none;" parent="1" vertex="1">
          <mxGeometry x="867.5" y="630" width="80" height="30" as="geometry" />
        </mxCell>
        <mxCell id="p5TeQGGZOSFcAktKHEvx-230" value="" style="rounded=1;whiteSpace=wrap;html=1;align=center;verticalAlign=middle;fontFamily=Times New Roman;fontSize=14;fontColor=default;fillColor=none;gradientColor=none;" parent="1" vertex="1">
          <mxGeometry x="990" y="545" width="210" height="700" as="geometry" />
        </mxCell>
        <mxCell id="p5TeQGGZOSFcAktKHEvx-231" value="&lt;b style=&quot;&quot;&gt;&lt;font style=&quot;font-size: 16px;&quot; face=&quot;宋体&quot;&gt;性能分析实验&lt;/font&gt;&lt;/b&gt;" style="text;html=1;align=center;verticalAlign=middle;whiteSpace=wrap;rounded=0;fontFamily=Helvetica;fontSize=12;fontColor=default;" parent="1" vertex="1">
          <mxGeometry x="1038.75" y="555" width="115" height="30" as="geometry" />
        </mxCell>
        <mxCell id="p5TeQGGZOSFcAktKHEvx-268" style="edgeStyle=orthogonalEdgeStyle;rounded=0;orthogonalLoop=1;jettySize=auto;html=1;exitX=0.5;exitY=1;exitDx=0;exitDy=0;entryX=0.5;entryY=0;entryDx=0;entryDy=0;strokeColor=default;align=center;verticalAlign=middle;fontFamily=Times New Roman;fontSize=14;fontColor=default;labelBackgroundColor=default;endArrow=classicThin;endFill=1;" parent="1" source="p5TeQGGZOSFcAktKHEvx-238" target="p5TeQGGZOSFcAktKHEvx-253" edge="1">
          <mxGeometry relative="1" as="geometry" />
        </mxCell>
        <mxCell id="p5TeQGGZOSFcAktKHEvx-238" value="" style="rounded=0;whiteSpace=wrap;html=1;dashed=1;strokeColor=default;align=center;verticalAlign=middle;fontFamily=宋体;fontSize=12;fontColor=default;fillColor=default;" parent="1" vertex="1">
          <mxGeometry x="1010" y="645" width="170" height="210" as="geometry" />
        </mxCell>
        <mxCell id="p5TeQGGZOSFcAktKHEvx-250" style="edgeStyle=orthogonalEdgeStyle;rounded=0;orthogonalLoop=1;jettySize=auto;html=1;exitX=0.5;exitY=1;exitDx=0;exitDy=0;entryX=0.5;entryY=0;entryDx=0;entryDy=0;strokeColor=default;align=center;verticalAlign=middle;fontFamily=Times New Roman;fontSize=14;fontColor=default;labelBackgroundColor=default;endArrow=classicThin;endFill=1;" parent="1" source="p5TeQGGZOSFcAktKHEvx-233" target="p5TeQGGZOSFcAktKHEvx-238" edge="1">
          <mxGeometry relative="1" as="geometry" />
        </mxCell>
        <mxCell id="p5TeQGGZOSFcAktKHEvx-233" value="精度对齐" style="rounded=0;whiteSpace=wrap;html=1;strokeColor=default;align=center;verticalAlign=middle;fontFamily=宋体;fontSize=14;fontColor=default;fillColor=default;" parent="1" vertex="1">
          <mxGeometry x="1045" y="595" width="100" height="30" as="geometry" />
        </mxCell>
        <mxCell id="p5TeQGGZOSFcAktKHEvx-239" value="&lt;b style=&quot;&quot;&gt;&lt;font style=&quot;font-size: 14px;&quot; face=&quot;Times New Roman&quot;&gt;Profile&lt;/font&gt;&lt;/b&gt;" style="text;html=1;align=center;verticalAlign=middle;whiteSpace=wrap;rounded=0;fontFamily=Helvetica;fontSize=12;fontColor=default;" parent="1" vertex="1">
          <mxGeometry x="1040" y="655" width="110" height="20" as="geometry" />
        </mxCell>
        <mxCell id="p5TeQGGZOSFcAktKHEvx-242" value="输入序列长度" style="rounded=0;whiteSpace=wrap;html=1;strokeColor=default;align=center;verticalAlign=middle;fontFamily=宋体;fontSize=14;fontColor=default;fillColor=default;" parent="1" vertex="1">
          <mxGeometry x="1029.38" y="685" width="110" height="30" as="geometry" />
        </mxCell>
        <mxCell id="p5TeQGGZOSFcAktKHEvx-243" value="块大小" style="rounded=0;whiteSpace=wrap;html=1;strokeColor=default;align=center;verticalAlign=middle;fontFamily=宋体;fontSize=14;fontColor=default;fillColor=default;" parent="1" vertex="1">
          <mxGeometry x="1029.38" y="765" width="110" height="30" as="geometry" />
        </mxCell>
        <mxCell id="p5TeQGGZOSFcAktKHEvx-245" value="并行维度" style="rounded=0;whiteSpace=wrap;html=1;strokeColor=default;align=center;verticalAlign=middle;fontFamily=宋体;fontSize=14;fontColor=default;fillColor=default;" parent="1" vertex="1">
          <mxGeometry x="1029.38" y="725" width="110" height="30" as="geometry" />
        </mxCell>
        <mxCell id="p5TeQGGZOSFcAktKHEvx-246" value="单头维度" style="rounded=0;whiteSpace=wrap;html=1;strokeColor=default;align=center;verticalAlign=middle;fontFamily=宋体;fontSize=14;fontColor=default;fillColor=default;" parent="1" vertex="1">
          <mxGeometry x="1029.38" y="805" width="110" height="30" as="geometry" />
        </mxCell>
        <mxCell id="p5TeQGGZOSFcAktKHEvx-252" value="&lt;font face=&quot;宋体&quot;&gt;可变参数&lt;/font&gt;" style="shape=curlyBracket;whiteSpace=wrap;html=1;rounded=1;flipH=1;labelPosition=right;verticalLabelPosition=middle;align=left;verticalAlign=middle;strokeColor=default;fontFamily=Times New Roman;fontSize=14;fontColor=default;fillColor=none;gradientColor=none;" parent="1" vertex="1">
          <mxGeometry x="1140.63" y="685" width="20" height="150" as="geometry" />
        </mxCell>
        <mxCell id="p5TeQGGZOSFcAktKHEvx-257" style="edgeStyle=orthogonalEdgeStyle;rounded=0;orthogonalLoop=1;jettySize=auto;html=1;exitX=0.5;exitY=1;exitDx=0;exitDy=0;entryX=0.5;entryY=0;entryDx=0;entryDy=0;strokeColor=default;align=center;verticalAlign=middle;fontFamily=Times New Roman;fontSize=14;fontColor=default;labelBackgroundColor=default;endArrow=classicThin;endFill=1;" parent="1" source="p5TeQGGZOSFcAktKHEvx-253" target="p5TeQGGZOSFcAktKHEvx-255" edge="1">
          <mxGeometry relative="1" as="geometry" />
        </mxCell>
        <mxCell id="p5TeQGGZOSFcAktKHEvx-253" value="搜索最优模式" style="rounded=0;whiteSpace=wrap;html=1;strokeColor=default;align=center;verticalAlign=middle;fontFamily=宋体;fontSize=14;fontColor=default;fillColor=default;" parent="1" vertex="1">
          <mxGeometry x="1040" y="875" width="110" height="30" as="geometry" />
        </mxCell>
        <mxCell id="sX8R1PPLeMM2Gcwgd5iX-6" style="edgeStyle=orthogonalEdgeStyle;rounded=0;orthogonalLoop=1;jettySize=auto;html=1;exitX=0.5;exitY=1;exitDx=0;exitDy=0;entryX=0.5;entryY=0;entryDx=0;entryDy=0;endArrow=classicThin;endFill=1;" edge="1" parent="1" source="p5TeQGGZOSFcAktKHEvx-255" target="p5TeQGGZOSFcAktKHEvx-261">
          <mxGeometry relative="1" as="geometry" />
        </mxCell>
        <mxCell id="p5TeQGGZOSFcAktKHEvx-255" value="复杂度分析" style="rounded=0;whiteSpace=wrap;html=1;strokeColor=default;align=center;verticalAlign=middle;fontFamily=宋体;fontSize=14;fontColor=default;fillColor=default;" parent="1" vertex="1">
          <mxGeometry x="1040" y="935" width="110" height="30" as="geometry" />
        </mxCell>
        <mxCell id="p5TeQGGZOSFcAktKHEvx-267" style="edgeStyle=orthogonalEdgeStyle;rounded=0;orthogonalLoop=1;jettySize=auto;html=1;exitX=0.5;exitY=1;exitDx=0;exitDy=0;entryX=0.5;entryY=1;entryDx=0;entryDy=0;strokeColor=default;align=center;verticalAlign=middle;fontFamily=Times New Roman;fontSize=14;fontColor=default;labelBackgroundColor=default;endArrow=classicThin;endFill=1;" parent="1" source="p5TeQGGZOSFcAktKHEvx-261" target="p5TeQGGZOSFcAktKHEvx-193" edge="1">
          <mxGeometry relative="1" as="geometry">
            <Array as="points">
              <mxPoint x="1095" y="1110" />
              <mxPoint x="1086" y="1110" />
              <mxPoint x="1086" y="1270" />
              <mxPoint x="360" y="1270" />
              <mxPoint x="360" y="820" />
              <mxPoint x="630" y="820" />
            </Array>
          </mxGeometry>
        </mxCell>
        <mxCell id="p5TeQGGZOSFcAktKHEvx-261" value="" style="rounded=0;whiteSpace=wrap;html=1;dashed=1;strokeColor=default;align=center;verticalAlign=middle;fontFamily=宋体;fontSize=12;fontColor=default;fillColor=default;" parent="1" vertex="1">
          <mxGeometry x="1010" y="1005" width="170" height="220" as="geometry" />
        </mxCell>
        <mxCell id="p5TeQGGZOSFcAktKHEvx-262" value="&lt;b style=&quot;&quot;&gt;&lt;font style=&quot;font-size: 14px;&quot; face=&quot;宋体&quot;&gt;算法可改进方向&lt;/font&gt;&lt;/b&gt;" style="text;html=1;align=center;verticalAlign=middle;whiteSpace=wrap;rounded=0;fontFamily=Helvetica;fontSize=12;fontColor=default;" parent="1" vertex="1">
          <mxGeometry x="1040" y="1025" width="110" height="20" as="geometry" />
        </mxCell>
        <mxCell id="p5TeQGGZOSFcAktKHEvx-263" value="动态设置块大小" style="rounded=0;whiteSpace=wrap;html=1;strokeColor=default;align=center;verticalAlign=middle;fontFamily=宋体;fontSize=14;fontColor=default;fillColor=default;" parent="1" vertex="1">
          <mxGeometry x="1041.25" y="1055" width="110" height="30" as="geometry" />
        </mxCell>
        <mxCell id="p5TeQGGZOSFcAktKHEvx-264" value="加速GEMM" style="rounded=0;whiteSpace=wrap;html=1;strokeColor=default;align=center;verticalAlign=middle;fontFamily=宋体;fontSize=14;fontColor=default;fillColor=default;" parent="1" vertex="1">
          <mxGeometry x="1040" y="1095" width="110" height="30" as="geometry" />
        </mxCell>
        <mxCell id="p5TeQGGZOSFcAktKHEvx-265" value="支持半精度" style="rounded=0;whiteSpace=wrap;html=1;strokeColor=default;align=center;verticalAlign=middle;fontFamily=宋体;fontSize=14;fontColor=default;fillColor=default;" parent="1" vertex="1">
          <mxGeometry x="1041.25" y="1135" width="110" height="30" as="geometry" />
        </mxCell>
        <mxCell id="p5TeQGGZOSFcAktKHEvx-266" value="......" style="rounded=0;whiteSpace=wrap;html=1;strokeColor=default;align=center;verticalAlign=middle;fontFamily=宋体;fontSize=14;fontColor=default;fillColor=default;" parent="1" vertex="1">
          <mxGeometry x="1041.25" y="1175" width="110" height="30" as="geometry" />
        </mxCell>
      </root>
    </mxGraphModel>
  </diagram>
</mxfile>
